<svg width="24" height="24" viewBox="0 0 24 24" fill="none" xmlns="http://www.w3.org/2000/svg">
<path d="M4.57308 4C3.84907 4 3.1547 4.27992 2.64274 4.77817C2.13079 5.27642 1.84317 5.9522 1.84317 6.65683V12.0155C2.85853 11.0667 4.21213 10.5379 5.61969 10.5399C6.65015 10.5383 7.65985 10.8218 8.53103 11.3574H17.1693C17.3364 11.3574 17.4966 11.422 17.6148 11.537C17.7329 11.6519 17.7993 11.8079 17.7993 11.9705C17.7993 12.1331 17.7329 12.2891 17.6148 12.404C17.4966 12.519 17.3364 12.5836 17.1693 12.5836H9.92371C10.408 13.1859 10.7525 13.8831 10.9334 14.6273H15.4894C15.6565 14.6273 15.8167 14.6919 15.9348 14.8069C16.053 14.9219 16.1194 15.0778 16.1194 15.2404C16.1194 15.4031 16.053 15.559 15.9348 15.674C15.8167 15.789 15.6565 15.8536 15.4894 15.8536H11.0795C11.0811 16.7672 10.8394 17.6656 10.3781 18.4613L12.3185 20.3497H19.2701C19.9941 20.3497 20.6885 20.0698 21.2004 19.5716C21.7124 19.0733 22 18.3975 22 17.6929V6.65683C22 5.9522 21.7124 5.27642 21.2004 4.77817C20.6885 4.27992 19.9941 4 19.2701 4H4.57308ZM6.03968 8.70055C6.03968 8.53794 6.10605 8.38199 6.22419 8.26701C6.34234 8.15203 6.50257 8.08743 6.66966 8.08743H12.9695C13.1365 8.08743 13.2968 8.15203 13.4149 8.26701C13.5331 8.38199 13.5994 8.53794 13.5994 8.70055C13.5994 8.86316 13.5331 9.0191 13.4149 9.13409C13.2968 9.24907 13.1365 9.31366 12.9695 9.31366H6.66966C6.50257 9.31366 6.34234 9.24907 6.22419 9.13409C6.10605 9.0191 6.03968 8.86316 6.03968 8.70055ZM9.30129 18.5701C10.0085 17.6622 10.3353 16.5269 10.2154 15.3935C10.0956 14.2602 9.53821 13.2134 8.65584 12.4647C7.77347 11.716 6.63195 11.3212 5.462 11.3602C4.29204 11.3991 3.18089 11.8688 2.35313 12.6744C1.52536 13.48 1.0427 14.5614 1.0027 15.7001C0.9627 16.8387 1.36834 17.9497 2.13764 18.8084C2.90694 19.6672 3.98253 20.2097 5.14702 20.3263C6.31151 20.4429 7.47807 20.1249 8.41092 19.4366L10.8443 21.8049C10.902 21.8651 10.9715 21.9134 11.0488 21.9469C11.1261 21.9804 11.2095 21.9985 11.2941 21.9999C11.3787 22.0014 11.4627 21.9862 11.5412 21.9554C11.6196 21.9245 11.6909 21.8786 11.7507 21.8204C11.8105 21.7622 11.8577 21.6929 11.8893 21.6165C11.921 21.5402 11.9366 21.4584 11.9351 21.3761C11.9336 21.2937 11.9151 21.2126 11.8807 21.1374C11.8462 21.0621 11.7966 20.9945 11.7347 20.9383L9.30129 18.5701ZM8.97958 15.8536C8.97958 16.7208 8.62559 17.5525 7.99549 18.1658C7.36539 18.779 6.51079 19.1235 5.61969 19.1235C4.72859 19.1235 3.87399 18.779 3.24389 18.1658C2.61379 17.5525 2.2598 16.7208 2.2598 15.8536C2.2598 14.9863 2.61379 14.1546 3.24389 13.5414C3.87399 12.9281 4.72859 12.5836 5.61969 12.5836C6.51079 12.5836 7.36539 12.9281 7.99549 13.5414C8.62559 14.1546 8.97958 14.9863 8.97958 15.8536Z" fill="#676767"/>
<path d="M7 15L4.9 17.25L4 16.35" stroke="#676767" stroke-linecap="round" stroke-linejoin="round"/>
</svg>
