<svg width="24" height="24" viewBox="0 0 24 24" fill="none" xmlns="http://www.w3.org/2000/svg">
<g id="brands/logo">
<path id="Vector" d="M20.8205 1.49585H3.29438C2.33672 1.49585 1.5 2.18491 1.5 3.13132V20.6963C1.5 21.6479 2.33672 22.4959 3.29438 22.4959H20.8153C21.7781 22.4959 22.5 21.6423 22.5 20.6963V3.13132C22.5056 2.18491 21.7781 1.49585 20.8205 1.49585ZM8.00953 19.0004H5.00109V9.64648H8.00953V19.0004ZM6.60938 8.22429H6.58781C5.625 8.22429 5.00156 7.50757 5.00156 6.61038C5.00156 5.69679 5.64141 4.99694 6.62578 4.99694C7.61016 4.99694 8.2125 5.69163 8.23406 6.61038C8.23359 7.50757 7.61016 8.22429 6.60938 8.22429ZM19.0045 19.0004H15.9961V13.8859C15.9961 12.6605 15.5583 11.8234 14.4698 11.8234C13.6383 11.8234 13.1461 12.3859 12.9272 12.9338C12.8452 13.1307 12.8231 13.3988 12.8231 13.6726V19.0004H9.81469V9.64648H12.8231V10.9482C13.2609 10.3248 13.9448 9.42757 15.5363 9.42757C17.5111 9.42757 19.005 10.7293 19.005 13.5357L19.0045 19.0004Z" fill="white"/>
</g>
</svg>
