<svg width="24" height="24" viewBox="0 0 24 24" fill="none" xmlns="http://www.w3.org/2000/svg">
<g id="Map View">
<path id="Vector" d="M2.25798 5.31175C2.02717 5.44313 1.83538 5.63342 1.70221 5.8632C1.56904 6.09297 1.49926 6.35399 1.50001 6.61956V20.5302C1.49917 20.7894 1.5655 21.0443 1.69253 21.2702C1.81956 21.4962 2.00296 21.6853 2.22484 21.8192C2.44673 21.9532 2.69953 22.0273 2.95861 22.0345C3.21769 22.0416 3.4742 21.9815 3.70313 21.86C3.72329 21.8493 3.74298 21.838 3.7622 21.8253L7.70626 19.2449C7.75863 19.2107 7.80164 19.164 7.83136 19.109C7.86107 19.054 7.87656 18.9924 7.87642 18.9299V2.17628C7.87661 2.10797 7.85814 2.0409 7.823 1.98232C7.78785 1.92374 7.73738 1.87587 7.67702 1.84388C7.61666 1.8119 7.54871 1.797 7.48051 1.80081C7.4123 1.80462 7.34643 1.82699 7.29001 1.8655L2.25798 5.31175ZM9.95438 1.84159C9.89784 1.80484 9.83244 1.78401 9.76506 1.78131C9.69768 1.7786 9.63081 1.79412 9.57151 1.82622C9.5122 1.85832 9.46265 1.90581 9.42807 1.96371C9.39349 2.0216 9.37516 2.08775 9.37501 2.15519V18.9158C9.37486 18.9783 9.39035 19.0399 9.42007 19.0949C9.44979 19.1499 9.49279 19.1967 9.54517 19.2308L14.0452 22.1568C14.1017 22.1937 14.1672 22.2146 14.2347 22.2173C14.3022 22.2201 14.3692 22.2046 14.4286 22.1724C14.488 22.1402 14.5376 22.0926 14.5722 22.0346C14.6067 21.9765 14.625 21.9102 14.625 21.8427V5.09284C14.6252 5.03019 14.6097 4.9685 14.5799 4.91339C14.5501 4.85828 14.5069 4.81152 14.4544 4.77737L9.95438 1.84159ZM21.7749 2.17722C21.5538 2.04193 21.3011 1.96693 21.0421 1.95969C20.783 1.95245 20.5266 2.01323 20.2983 2.13597C20.2781 2.14634 20.2585 2.15793 20.2397 2.17066L16.2952 4.74878C16.2428 4.78294 16.1998 4.82965 16.1701 4.88466C16.1404 4.93968 16.1249 5.00125 16.125 5.06378V21.8197C16.1248 21.8881 16.1432 21.9553 16.1784 22.0139C16.2135 22.0726 16.2641 22.1205 16.3245 22.1525C16.385 22.1845 16.453 22.1994 16.5213 22.1955C16.5895 22.1916 16.6555 22.1691 16.7119 22.1305L21.7308 18.6871C21.9644 18.5567 22.1589 18.3663 22.2941 18.1356C22.4294 17.9048 22.5005 17.642 22.5 17.3746V3.49956C22.5031 3.23539 22.438 2.97488 22.3109 2.74324C22.1839 2.51159 21.9993 2.31663 21.7749 2.17722Z" fill="#676767"/>
</g>
</svg>
