<svg width="20" height="20" viewBox="0 0 20 20" fill="none" xmlns="http://www.w3.org/2000/svg">
<g id="system/search">
<path id="Vector" d="M17.8395 16.4596L14.1641 12.7842C15.0489 11.6062 15.5266 10.1723 15.525 8.69902C15.525 4.93574 12.4633 1.87402 8.7 1.87402C4.93672 1.87402 1.875 4.93574 1.875 8.69902C1.875 12.4623 4.93672 15.524 8.7 15.524C10.1733 15.5256 11.6072 15.048 12.7852 14.1631L16.4605 17.8385C16.6466 18.0048 16.8893 18.0936 17.1387 18.0866C17.3881 18.0796 17.6255 17.9774 17.8019 17.8009C17.9784 17.6245 18.0806 17.3872 18.0876 17.1377C18.0945 16.8883 18.0058 16.6456 17.8395 16.4596ZM3.825 8.69902C3.825 7.73484 4.11091 6.79231 4.64659 5.99062C5.18226 5.18893 5.94363 4.56409 6.83442 4.19511C7.72521 3.82613 8.70541 3.72959 9.65107 3.9177C10.5967 4.1058 11.4654 4.5701 12.1471 5.25188C12.8289 5.93366 13.2932 6.8023 13.4813 7.74796C13.6694 8.69362 13.5729 9.67381 13.2039 10.5646C12.8349 11.4554 12.2101 12.2168 11.4084 12.7524C10.6067 13.2881 9.66418 13.574 8.7 13.574C7.40755 13.5725 6.16847 13.0584 5.25457 12.1445C4.34066 11.2306 3.82655 9.99148 3.825 8.69902Z" fill="#707070"/>
</g>
</svg>
