<svg width="24" height="24" viewBox="0 0 24 24" fill="none" xmlns="http://www.w3.org/2000/svg">
<g id="Setting">
<path id="Vector" d="M12 14.2537C13.2426 14.2537 14.25 13.2463 14.25 12.0037C14.25 10.761 13.2426 9.75366 12 9.75366C10.7574 9.75366 9.75 10.761 9.75 12.0037C9.75 13.2463 10.7574 14.2537 12 14.2537Z" fill="#676767"/>
<path id="Vector_2" d="M22.0496 14.0652L22.0275 14.0474L20.5482 12.8872C20.4545 12.8131 20.3797 12.7178 20.33 12.6092C20.2803 12.5006 20.2571 12.3817 20.2622 12.2624V11.7205C20.2575 11.6019 20.281 11.4839 20.3308 11.3762C20.3806 11.2685 20.4553 11.1741 20.5486 11.1008L22.0275 9.94019L22.0496 9.92237C22.2776 9.73237 22.4307 9.46743 22.4814 9.17494C22.532 8.88244 22.477 8.58146 22.3261 8.32581L20.3241 4.86175C20.3218 4.85848 20.3197 4.85503 20.318 4.85144C20.1663 4.59932 19.9311 4.4083 19.6532 4.31154C19.3754 4.21478 19.0724 4.21839 18.7969 4.32175L18.7805 4.32784L17.0414 5.02769C16.9317 5.07207 16.8129 5.08973 16.695 5.07921C16.5771 5.0687 16.4633 5.03031 16.3631 4.96722C16.2094 4.87034 16.0531 4.77878 15.8944 4.69253C15.7915 4.63671 15.7031 4.55749 15.6364 4.46125C15.5697 4.36501 15.5266 4.25444 15.5105 4.13847L15.2485 2.28269L15.2428 2.24894C15.1858 1.9615 15.0315 1.70245 14.806 1.51534C14.5805 1.32822 14.2974 1.22444 14.0044 1.22144H9.99565C9.69849 1.22239 9.4112 1.32818 9.18439 1.52017C8.95758 1.71217 8.80581 1.97804 8.75581 2.27097L8.75159 2.29722L8.49049 4.15675C8.47448 4.27239 8.43168 4.3827 8.36552 4.47889C8.29936 4.57507 8.21166 4.65449 8.1094 4.71081C7.95019 4.79656 7.79385 4.88755 7.64065 4.98362C7.54065 5.04633 7.42719 5.08443 7.30961 5.09478C7.19202 5.10513 7.07366 5.08743 6.96424 5.04315L5.22377 4.34003L5.20737 4.33347C4.93149 4.23 4.62807 4.22652 4.34989 4.32365C4.07172 4.42077 3.8364 4.61234 3.68487 4.86503L3.67877 4.87534L1.67393 8.34175C1.52282 8.59766 1.46767 8.89897 1.51833 9.19181C1.569 9.48466 1.72218 9.74992 1.95049 9.94019L1.97252 9.958L3.4519 11.1182C3.54558 11.1923 3.62035 11.2875 3.67006 11.3962C3.71976 11.5048 3.74299 11.6237 3.73784 11.743V12.2849C3.74253 12.4035 3.71902 12.5215 3.66923 12.6292C3.61944 12.7369 3.54479 12.8313 3.45143 12.9046L1.97252 14.0652L1.95049 14.083C1.72241 14.273 1.56935 14.5379 1.51868 14.8304C1.46802 15.1229 1.52304 15.4239 1.67393 15.6796L3.67596 19.1436C3.67827 19.1469 3.6803 19.1503 3.68205 19.1539C3.83375 19.406 4.06896 19.5971 4.34682 19.6938C4.62469 19.7906 4.92767 19.787 5.20315 19.6836L5.21955 19.6775L6.95721 18.9777C7.06697 18.9333 7.18571 18.9156 7.30364 18.9262C7.42157 18.9367 7.53531 18.9751 7.63549 19.0382C7.78924 19.1353 7.94549 19.2269 8.10424 19.3128C8.20717 19.3687 8.29554 19.4479 8.36223 19.5441C8.42891 19.6404 8.47204 19.7509 8.48815 19.8669L8.74877 21.7227L8.7544 21.7564C8.81154 22.0443 8.9662 22.3037 9.19231 22.4909C9.41841 22.6781 9.70214 22.7816 9.99565 22.7839H14.0044C14.3016 22.783 14.5888 22.6772 14.8157 22.4852C15.0425 22.2932 15.1942 22.0273 15.2442 21.7344L15.2485 21.7082L15.5096 19.8486C15.5258 19.7328 15.569 19.6223 15.6356 19.5261C15.7021 19.4299 15.7903 19.3506 15.893 19.2946C16.0533 19.2083 16.2099 19.1169 16.3617 19.0217C16.4617 18.959 16.5752 18.9209 16.6928 18.9106C16.8104 18.9002 16.9287 18.9179 17.0382 18.9622L18.7786 19.663L18.795 19.6696C19.0709 19.7732 19.3744 19.7768 19.6526 19.6796C19.9308 19.5825 20.1661 19.3908 20.3175 19.138C20.3194 19.1345 20.3214 19.131 20.3236 19.1277L22.3257 15.6641C22.477 15.4082 22.5324 15.1068 22.4818 14.8138C22.4312 14.5209 22.278 14.2555 22.0496 14.0652ZM15.7458 12.1789C15.7117 12.9048 15.4674 13.6052 15.0426 14.1948C14.6178 14.7844 14.0309 15.2379 13.3531 15.5001C12.6754 15.7624 11.936 15.822 11.225 15.6718C10.514 15.5217 9.86196 15.1682 9.34814 14.6543C8.83431 14.1404 8.48087 13.4883 8.33079 12.7773C8.18071 12.0662 8.24045 11.3269 8.50276 10.6492C8.76507 9.97149 9.21863 9.3846 9.8083 8.95989C10.398 8.53518 11.0983 8.29095 11.8242 8.2569C12.3454 8.23396 12.8656 8.31971 13.3518 8.5087C13.838 8.69768 14.2796 8.98578 14.6484 9.35466C15.0172 9.72354 15.3053 10.1651 15.4942 10.6514C15.6831 11.1376 15.7688 11.6578 15.7458 12.1789Z" fill="#676767"/>
</g>
</svg>
