<svg width="24" height="24" viewBox="0 0 24 24" fill="none" xmlns="http://www.w3.org/2000/svg">
<g id="brands/logo">
<path id="Vector" d="M23.25 5.13673C22.406 5.50345 21.513 5.74506 20.5992 5.85391C21.5595 5.29159 22.2817 4.39824 22.6303 3.34141C21.7224 3.87232 20.7307 4.24482 19.6978 4.44298C19.2629 3.98713 18.7398 3.62449 18.1603 3.37711C17.5808 3.12972 16.9571 3.00275 16.327 3.00391C13.7761 3.00391 11.7117 5.03829 11.7117 7.5461C11.7099 7.89493 11.7499 8.24272 11.8308 8.58204C10.0016 8.49629 8.2104 8.02966 6.57187 7.212C4.93333 6.39435 3.48351 5.24368 2.31516 3.8336C1.90527 4.5246 1.6885 5.313 1.6875 6.11641C1.6875 7.69141 2.50922 9.0836 3.75 9.89923C3.01487 9.88178 2.29481 9.68721 1.65094 9.33204V9.38829C1.65094 11.5914 3.24469 13.4242 5.35406 13.8414C4.9574 13.9472 4.54864 14.0007 4.13813 14.0008C3.84683 14.0013 3.55621 13.973 3.27047 13.9164C3.85688 15.7211 5.5636 17.0336 7.58531 17.0711C5.94252 18.3372 3.9256 19.0215 1.85156 19.0164C1.48341 19.0159 1.11561 18.994 0.75 18.9508C2.85993 20.2981 5.31255 21.0107 7.81594 21.0039C16.3172 21.0039 20.9616 14.0805 20.9616 8.07579C20.9616 7.87891 20.9564 7.68204 20.947 7.48985C21.8485 6.84863 22.6284 6.05178 23.25 5.13673Z" fill="white"/>
</g>
</svg>
